<svg width="64" height="75" viewBox="0 0 64 75" fill="none" xmlns="http://www.w3.org/2000/svg">
<path d="M31.776 0C23.6458 0 12.1022 2.75143 5.97868 4.303C2.46181 5.21325 0 8.3991 0 11.9987V29.128C0 42.2438 7.77849 53.3323 15.3087 61.1729C22.8183 69.0134 30.3692 73.7302 30.3692 73.7302L31.7967 74.6404L33.2034 73.7302C33.2034 73.7302 40.7337 68.8893 48.2432 60.9867C55.7735 53.1048 63.552 42.037 63.552 29.128V11.9987C63.552 8.3991 61.0901 5.21325 57.594 4.303H57.5733C51.4498 2.75143 39.9062 0 31.776 0ZM31.776 5.296C38.6235 5.296 50.2706 7.9233 56.27 9.4335C57.4491 9.7438 58.256 10.7782 58.256 11.9987V29.128C58.256 39.8648 51.4705 49.9603 44.4367 57.3457C38.0857 63.9864 32.9759 67.2757 31.776 68.0825C30.5554 67.2964 25.4663 64.1105 19.1152 57.5112C12.0815 50.1878 5.296 40.0923 5.296 29.128V11.9987C5.296 10.7782 6.08212 9.7438 7.28199 9.4335C13.2607 7.9233 24.9284 5.296 31.776 5.296Z" fill="white"/>
</svg>
